<?xml version="1.0" encoding="UTF-8"?>
<svg version="1.1" xmlns="http://www.w3.org/2000/svg" width="178" height="40">
<path d="M0 0 C2.89589652 -0.02706445 5.79153795 -0.04687029 8.6875 -0.0625 C9.50412109 -0.07087891 10.32074219 -0.07925781 11.16210938 -0.08789062 C15.28212564 -0.10457085 18.95674357 0.14187101 23 1 C23.66 0.67 24.32 0.34 25 0 C27.88370333 -0.07194869 30.74239664 -0.09291708 33.625 -0.0625 C34.42679688 -0.05798828 35.22859375 -0.05347656 36.0546875 -0.04882812 C38.03649006 -0.03703168 40.01825433 -0.01909605 42 0 C42.495 1.485 42.495 1.485 43 3 C43.969375 2.979375 44.93875 2.95875 45.9375 2.9375 C49 3 49 3 50 4 C50 13.9 50 23.8 50 34 C85.31 34 120.62 34 157 34 C157 35.32 157 36.64 157 38 C139.71077517 38.0466897 122.42156998 38.08197395 105.13229656 38.10362434 C97.10485923 38.11394351 89.07746104 38.12801606 81.05004883 38.15087891 C74.0545818 38.1707932 67.05914311 38.18371177 60.06364852 38.18817699 C56.35847931 38.1907877 52.65339118 38.19693725 48.94824791 38.21146011 C44.8153153 38.22752884 40.68252428 38.22798095 36.54956055 38.22705078 C35.31669815 38.23424133 34.08383575 38.24143188 32.81361389 38.24884033 C31.69040741 38.246091 30.56720093 38.24334167 29.40995789 38.24050903 C28.43193553 38.24235262 27.45391317 38.24419621 26.44625378 38.24609566 C24 38 24 38 21 36 C20.34 36.66 19.68 37.32 19 38 C16.50976563 38.25878906 16.50976563 38.25878906 13.40625 38.265625 C12.29378906 38.26820312 11.18132813 38.27078125 10.03515625 38.2734375 C8.86855469 38.26570313 7.70195312 38.25796875 6.5 38.25 C5.33339844 38.25773437 4.16679687 38.26546875 2.96484375 38.2734375 C1.85238281 38.27085938 0.73992188 38.26828125 -0.40625 38.265625 C-1.43041016 38.26336914 -2.45457031 38.26111328 -3.50976562 38.25878906 C-6 38 -6 38 -8 36 C-8.22705078 33.56982422 -8.22705078 33.56982422 -8.1953125 30.5546875 C-8.18886719 29.47832031 -8.18242187 28.40195312 -8.17578125 27.29296875 C-8.15902344 26.16503906 -8.14226563 25.03710938 -8.125 23.875 C-8.11597656 22.73933594 -8.10695313 21.60367187 -8.09765625 20.43359375 C-8.07403098 17.62218701 -8.04109013 14.81119702 -8 12 C-8.69867188 12.01160156 -9.39734375 12.02320313 -10.1171875 12.03515625 C-11.02726563 12.04417969 -11.93734375 12.05320312 -12.875 12.0625 C-14.23238281 12.07990234 -14.23238281 12.07990234 -15.6171875 12.09765625 C-18 12 -18 12 -20 11 C-20 10.01 -20 9.02 -20 8 C-14.06 7.505 -14.06 7.505 -8 7 C-7.67 5.68 -7.34 4.36 -7 3 C-4.69 3 -2.38 3 0 3 C0 2.01 0 1.02 0 0 Z M4 4 C4 5.32 4 6.64 4 8 C7.96 8 11.92 8 16 8 C16 8.99 16 9.98 16 11 C12.04 11 8.08 11 4 11 C4 16.61 4 22.22 4 28 C8.95 28.33 13.9 28.66 19 29 C19 21.08 19 13.16 19 5 C16.11584117 3.55792059 13.58278472 3.90605113 10.375 3.9375 C8.59222656 3.95103516 8.59222656 3.95103516 6.7734375 3.96484375 C5.40058594 3.98224609 5.40058594 3.98224609 4 4 Z M23 5 C23 12.92 23 20.84 23 29 C28.28 28.67 33.56 28.34 39 28 C39 20.08 39 12.16 39 4 C36.73125 3.979375 34.4625 3.95875 32.125 3.9375 C30.21074219 3.92009766 30.21074219 3.92009766 28.2578125 3.90234375 C25.11335348 3.76823431 25.11335348 3.76823431 23 5 Z M-4 7 C0 8 0 8 0 8 Z M43 7 C43 14.92 43 22.84 43 31 C37.06 31.33 31.12 31.66 25 32 C25.33 32.66 25.66 33.32 26 34 C32.6 34 39.2 34 46 34 C46 25.09 46 16.18 46 7 C45.01 7 44.02 7 43 7 Z M-3 12 C-3 19.26 -3 26.52 -3 34 C3.6 34 10.2 34 17 34 C17 33.34 17 32.68 17 32 C11.39 31.67 5.78 31.34 0 31 C0 24.4 0 17.8 0 11 C-1.2236068 10.9254644 -1.2236068 10.9254644 -3 12 Z " fill="#215C93" transform="translate(20,1)"/>
<path d="M0 0 C0.80179688 0.00451172 1.60359375 0.00902344 2.4296875 0.01367188 C4.41149006 0.02546832 6.39325433 0.04340395 8.375 0.0625 C8.705 1.0525 9.035 2.0425 9.375 3.0625 C10.344375 3.041875 11.31375 3.02125 12.3125 3 C15.375 3.0625 15.375 3.0625 16.375 4.0625 C16.375 13.9625 16.375 23.8625 16.375 34.0625 C51.685 34.0625 86.995 34.0625 123.375 34.0625 C123.375 35.3825 123.375 36.7025 123.375 38.0625 C86.415 38.0625 49.455 38.0625 11.375 38.0625 C11.375 37.4025 11.375 36.7425 11.375 36.0625 C5.105 36.0625 -1.165 36.0625 -7.625 36.0625 C-7.295 35.4025 -6.965 34.7425 -6.625 34.0625 C-0.355 34.0625 5.915 34.0625 12.375 34.0625 C12.375 25.1525 12.375 16.2425 12.375 7.0625 C11.385 7.0625 10.395 7.0625 9.375 7.0625 C9.375 14.9825 9.375 22.9025 9.375 31.0625 C4.755 31.0625 0.135 31.0625 -4.625 31.0625 C-4.955 30.4025 -5.285 29.7425 -5.625 29.0625 C-1.995 29.0625 1.635 29.0625 5.375 29.0625 C5.375 20.8125 5.375 12.5625 5.375 4.0625 C0.425 4.3925 -4.525 4.7225 -9.625 5.0625 C-9.955 3.7425 -10.285 2.4225 -10.625 1.0625 C-7.31505287 -0.59247356 -3.63377 -0.03834335 0 0 Z " fill="#12518C" transform="translate(53.625,0.9375)"/>
<path d="M0 0 C1.32 0.33 2.64 0.66 4 1 C4 4.63 4 8.26 4 12 C4.99 12 5.98 12 7 12 C7 10.02 7 8.04 7 6 C6.34 6 5.68 6 5 6 C5 5.34 5 4.68 5 4 C6.43410368 3.75045995 7.87260072 3.52607358 9.3125 3.3125 C10.11300781 3.18488281 10.91351563 3.05726562 11.73828125 2.92578125 C14 3 14 3 15.73046875 3.98046875 C17 6 17 6 18 14 C7.44 14 -3.12 14 -14 14 C-14 11.69 -14 9.38 -14 7 C-14.99 7 -15.98 7 -17 7 C-17 8.32 -17 9.64 -17 11 C-16.34 11.33 -15.68 11.66 -15 12 C-15 12.66 -15 13.32 -15 14 C-20.61 14 -26.22 14 -32 14 C-32.86988854 9.65055731 -33.03595522 8.02871475 -32 4 C-29.6875 3.375 -29.6875 3.375 -27 3 C-26.01 3.66 -25.02 4.32 -24 5 C-23.8125 8.125 -23.8125 8.125 -24 11 C-23.34 11 -22.68 11 -22 11 C-21.67 9.35 -21.34 7.7 -21 6 C-21.66 6 -22.32 6 -23 6 C-23 5.34 -23 4.68 -23 4 C-7.51162791 1.99224806 -7.51162791 1.99224806 -3 5 C-2.8125 8.625 -2.8125 8.625 -3 12 C-2.01 12 -1.02 12 0 12 C0 10.02 0 8.04 0 6 C-0.66 6 -1.32 6 -2 6 C-2 5.34 -2 4.68 -2 4 C-1.34 3.67 -0.68 3.34 0 3 C0 2.01 0 1.02 0 0 Z M-9 6 C-9 7.98 -9 9.96 -9 12 C-8.01 12 -7.02 12 -6 12 C-6 10.02 -6 8.04 -6 6 C-6.99 6 -7.98 6 -9 6 Z M10 6 C10 7.98 10 9.96 10 12 C10.99 12 11.98 12 13 12 C13 10.02 13 8.04 13 6 C12.01 6 11.02 6 10 6 Z " fill="#FEB923" transform="translate(146,13)"/>
<path d="M0 0 C11.88 0 23.76 0 36 0 C36 0.99 36 1.98 36 3 C32.69428083 4.65285959 29.004622 4.1005118 25.375 4.0625 C22.61125 4.041875 19.8475 4.02125 17 4 C17 11.26 17 18.52 17 26 C16.67 26 16.34 26 16 26 C16 18.41 16 10.82 16 3 C15.01 3 14.02 3 13 3 C13 11.25 13 19.5 13 28 C12.67 28 12.34 28 12 28 C12 20.08 12 12.16 12 4 C8.7 4 5.4 4 2 4 C1.34 3.67 0.68 3.34 0 3 C0 2.01 0 1.02 0 0 Z " fill="#ECC66C" transform="translate(0,9)"/>
<path d="M0 0 C2.31 0 4.62 0 7 0 C7 0.66 7 1.32 7 2 C6.34 2 5.68 2 5 2 C5 4.97 5 7.94 5 11 C6.32 11 7.64 11 9 11 C9 10.34 9 9.68 9 9 C9.99 9 10.98 9 12 9 C12.061875 8.38125 12.12375 7.7625 12.1875 7.125 C13 5 13 5 15.3125 3.5625 C18 3 18 3 20.3125 4.375 C20.869375 4.91125 21.42625 5.4475 22 6 C21.125 12.875 21.125 12.875 20 14 C17.66666667 13.66666667 15.33333333 13.33333333 13 13 C12.67 13.33 12.34 13.66 12 14 C7.99779347 14.14355117 4.00558317 14.04216403 0 14 C0.66 10.04 1.32 6.08 2 2 C1.34 2 0.68 2 0 2 C0 1.34 0 0.68 0 0 Z " fill="#FEBA25" transform="translate(91,13)"/>
<path d="M0 0 C-0.33 0.94875 -0.66 1.8975 -1 2.875 C-2.0550554 6.17204813 -2.16285731 7.25809446 -1.4375 10.5625 C-1.293125 11.366875 -1.14875 12.17125 -1 13 C-2 14 -2 14 -4.06640625 14.09765625 C-4.89011719 14.08605469 -5.71382812 14.07445312 -6.5625 14.0625 C-7.38878906 14.05347656 -8.21507812 14.04445313 -9.06640625 14.03515625 C-9.70449219 14.02355469 -10.34257812 14.01195312 -11 14 C-12.02205917 10.21090261 -12.35200029 6.94240326 -12 3 C-8.8440422 -2.25992967 -5.35775618 -1.07155124 0 0 Z M-8 2 C-8 2.99 -8 3.98 -8 5 C-7.01 5 -6.02 5 -5 5 C-5 4.01 -5 3.02 -5 2 C-5.99 2 -6.98 2 -8 2 Z M-8 10 C-8 10.66 -8 11.32 -8 12 C-7.01 11.67 -6.02 11.34 -5 11 C-5.99 10.67 -6.98 10.34 -8 10 Z " fill="#FEBE32" transform="translate(176,17)"/>
<path d="M0 0 C0.99 0 1.98 0 3 0 C3 7.59 3 15.18 3 23 C9.6 23 16.2 23 23 23 C23.33 23.66 23.66 24.32 24 25 C16.08 25.33 8.16 25.66 0 26 C0 17.42 0 8.84 0 0 Z " fill="#074988" transform="translate(13,12)"/>
<path d="M0 0 C3.63 0 7.26 0 11 0 C11 1.65 11 3.3 11 5 C10.34 5 9.68 5 9 5 C9 5.99 9 6.98 9 8 C7.68 8 6.36 8 5 8 C5 8.99 5 9.98 5 11 C6.32 11 7.64 11 9 11 C9 10.34 9 9.68 9 9 C9.66 9 10.32 9 11 9 C11 10.65 11 12.3 11 14 C7.37 14 3.74 14 0 14 C0 9.38 0 4.76 0 0 Z M5 2 C5 2.99 5 3.98 5 5 C6.32 5 7.64 5 9 5 C8.67 4.01 8.34 3.02 8 2 C7.01 2 6.02 2 5 2 Z " fill="#FEBE31" transform="translate(71,13)"/>
<path d="M0 0 C0.99 0 1.98 0 3 0 C3 5.94 3 11.88 3 18 C6.96 18 10.92 18 15 18 C15 18.33 15 18.66 15 19 C10.05 19.33 5.1 19.66 0 20 C0 13.4 0 6.8 0 0 Z " fill="#0A4B89" transform="translate(20,12)"/>
<path d="M0 0 C5.35315985 -0.35687732 5.35315985 -0.35687732 7.8125 1 C9.70103144 4.18068454 9.69956547 7.33469879 10 11 C7.69 11 5.38 11 3 11 C3 10.34 3 9.68 3 9 C3.66 9 4.32 9 5 9 C5 7.02 5 5.04 5 3 C3.68 3 2.36 3 1 3 C0.67 2.01 0.34 1.02 0 0 Z " fill="#FEBB29" transform="translate(154,16)"/>
<path d="M0 0 C4.29 0 8.58 0 13 0 C13 0.99 13 1.98 13 3 C8.40456709 5.29771645 1.82752346 4.24581251 -3 3 C-2.01 2.67 -1.02 2.34 0 2 C0 1.34 0 0.68 0 0 Z " fill="#FAB41B" transform="translate(23,9)"/>
<path d="M0 0 C0.66 0.33 1.32 0.66 2 1 C1.67 4.3 1.34 7.6 1 11 C2.98 11 4.96 11 7 11 C7 10.01 7 9.02 7 8 C7.66 8 8.32 8 9 8 C9 9.65 9 11.3 9 13 C5.37 13 1.74 13 -2 13 C-1.85966889 11.02043559 -1.7125877 9.04134859 -1.5625 7.0625 C-1.48128906 5.96035156 -1.40007812 4.85820312 -1.31640625 3.72265625 C-1 1 -1 1 0 0 Z " fill="#FEB71B" transform="translate(73,14)"/>
<path d="M0 0 C2.125 0.9375 2.125 0.9375 4 2 C3.125 8.875 3.125 8.875 2 10 C-0.33944736 9.71269945 -2.6739143 9.38063221 -5 9 C-4.34 8.67 -3.68 8.34 -3 8 C-3 7.01 -3 6.02 -3 5 C-1.68 5 -0.36 5 1 5 C0.01 3.68 -0.98 2.36 -2 1 C-1.34 0.67 -0.68 0.34 0 0 Z " fill="#FEBE32" transform="translate(109,17)"/>
<path d="M0 0 C4.62 0 9.24 0 14 0 C14 0.33 14 0.66 14 1 C10.7 1.33 7.4 1.66 4 2 C7.96 2.33 11.92 2.66 16 3 C16 3.33 16 3.66 16 4 C10.72 4 5.44 4 0 4 C0 2.68 0 1.36 0 0 Z " fill="#608BB3" transform="translate(45,29)"/>
<path d="M0 0 C2.64 0 5.28 0 8 0 C8 1.32 8 2.64 8 4 C5.36 4 2.72 4 0 4 C0 2.68 0 1.36 0 0 Z " fill="#FEBE35" transform="translate(47,21)"/>
<path d="M0 0 C2.64 0 5.28 0 8 0 C8 1.32 8 2.64 8 4 C5.36 4 2.72 4 0 4 C0 2.68 0 1.36 0 0 Z " fill="#FEC13C" transform="translate(47,15)"/>
<path d="M0 0 C2.97 0 5.94 0 9 0 C8.67 1.32 8.34 2.64 8 4 C5.36 4 2.72 4 0 4 C0 2.68 0 1.36 0 0 Z " fill="#FEBD30" transform="translate(27,21)"/>
<path d="M0 0 C5.75 -0.125 5.75 -0.125 8 1 C8 3.64 8 6.28 8 9 C7.67 9 7.34 9 7 9 C6.67 7.35 6.34 5.7 6 4 C5.01 4 4.02 4 3 4 C3 5.65 3 7.3 3 9 C2.34 9 1.68 9 1 9 C0.67 6.03 0.34 3.06 0 0 Z " fill="#FEC444" transform="translate(126,16)"/>
<path d="M0 0 C2.97 0 5.94 0 9 0 C8.67 1.32 8.34 2.64 8 4 C5.69 4 3.38 4 1 4 C0.67 2.68 0.34 1.36 0 0 Z " fill="#FEBC2C" transform="translate(27,15)"/>
<path d="M0 0 C2.64 0 5.28 0 8 0 C8.33 0.99 8.66 1.98 9 3 C2.375 4.125 2.375 4.125 -1 3 C-0.67 2.01 -0.34 1.02 0 0 Z " fill="#FEBB28" transform="translate(47,9)"/>
<path d="M0 0 C1.32 0.33 2.64 0.66 4 1 C4 4.63 4 8.26 4 12 C3.67 12 3.34 12 3 12 C3 9.69 3 7.38 3 5 C1.35 5.33 -0.3 5.66 -2 6 C-2 5.34 -2 4.68 -2 4 C-1.34 3.67 -0.68 3.34 0 3 C0 2.01 0 1.02 0 0 Z " fill="#FEC342" transform="translate(146,13)"/>
<path d="M0 0 C0.33 2.97 0.66 5.94 1 9 C0.34 9 -0.32 9 -1 9 C-1 6.69 -1 4.38 -1 2 C-2.98 2.33 -4.96 2.66 -7 3 C-7 2.01 -7 1.02 -7 0 C-4.3333581 -1.33332095 -2.83319697 -0.67102033 0 0 Z " fill="#FEBA25" transform="translate(121,17)"/>
<path d="M0 0 C0.33 0 0.66 0 1 0 C1 1.98 1 3.96 1 6 C1.66 6 2.32 6 3 6 C3 4.02 3 2.04 3 0 C3.33 0 3.66 0 4 0 C4.33 2.64 4.66 5.28 5 8 C2.69 8 0.38 8 -2 8 C-2 7.34 -2 6.68 -2 6 C-1.34 6 -0.68 6 0 6 C0 4.02 0 2.04 0 0 Z " fill="#FEC038" transform="translate(159,19)"/>
<path d="M0 0 C0.66 0.33 1.32 0.66 2 1 C2.4140625 3.06640625 2.4140625 3.06640625 2.625 5.5625 C2.69976562 6.38878906 2.77453125 7.21507812 2.8515625 8.06640625 C2.90054688 8.70449219 2.94953125 9.34257812 3 10 C1.35 10 -0.3 10 -2 10 C-2 9.34 -2 8.68 -2 8 C-1.34 8 -0.68 8 0 8 C0 5.36 0 2.72 0 0 Z " fill="#FFB71C" transform="translate(134,17)"/>
<path d="M0 0 C2.31 0 4.62 0 7 0 C7 0.99 7 1.98 7 3 C4.69 3 2.38 3 0 3 C0 2.01 0 1.02 0 0 Z " fill="#FED070" transform="translate(83,19)"/>
<path d="M0 0 C2.31 0.33 4.62 0.66 7 1 C6.34 1.66 5.68 2.32 5 3 C4.01 3 3.02 3 2 3 C2 4.98 2 6.96 2 9 C1.67 9 1.34 9 1 9 C0.67 6.03 0.34 3.06 0 0 Z " fill="#FEC037" transform="translate(135,16)"/>
<path d="M0 0 C0.99 0 1.98 0 3 0 C3 0.66 3 1.32 3 2 C4.32 2.33 5.64 2.66 7 3 C6 4 6 4 3.4375 4.0625 C2.2309375 4.0315625 2.2309375 4.0315625 1 4 C0.67 2.68 0.34 1.36 0 0 Z " fill="#FEBC2A" transform="translate(164,27)"/>
<path d="M0 0 C0.99 0 1.98 0 3 0 C3 0.99 3 1.98 3 3 C3.66 3 4.32 3 5 3 C5 3.66 5 4.32 5 5 C3.35 4.67 1.7 4.34 0 4 C0 2.68 0 1.36 0 0 Z " fill="#FFBB28" transform="translate(113,22)"/>
<path d="M0 0 C0.33 1.32 0.66 2.64 1 4 C-1.97 3.505 -1.97 3.505 -5 3 C-5 2.34 -5 1.68 -5 1 C-3.35 0.67 -1.7 0.34 0 0 Z " fill="#FEC343" transform="translate(119,19)"/>
</svg>
